# xmcd
#
# Track frame offsets: 
#        150
#        21693
#        51331
#        74898
#        94114
#        118154
#        140035
#        164736
#        183393
#        213565
#        231791
#
# Disc length: 3304 seconds
#
# Revision: 1
# Processed by: cddbd v1.5.2PL0 Copyright (c) Steve Scherf et al.
# Submitted via: ExactAudioCopyFreeDBPlugin 1.0
#
DISCID=b70ce60b
DTITLE=Triosence - Hidden Beauty
DYEAR=2017
DGENRE=Jazz
TTITLE0=As If It Was Yesterday
TTITLE1=Hidden Beauty
TTITLE2=Sad Chilean
TTITLE3=Hit By Life
TTITLE4=Thaisinha
TTITLE5=Day At Scarlett's
TTITLE6=Some Things Never Change
TTITLE7=Out Of Reach
TTITLE8=Juquei
TTITLE9=Leave Me Here
TTITLE10=Basically It's All Quit Simple
EXTD=YEAR: 2017
EXTT0=
EXTT1=
EXTT2=
EXTT3=
EXTT4=
EXTT5=
EXTT6=
EXTT7=
EXTT8=
EXTT9=
EXTT10=
PLAYORDER=
